<svg width="81" height="91" viewBox="0 0 111 77" fill="none" xmlns="http://www.w3.org/2000/svg">
<g id="logos:facebook" clip-path="url(#clip0_2_16)">
<path id="Vector" d="M111 38.5C111 17.2372 86.1516 0 55.5 0C24.8484 0 0 17.2369 0 38.5C0 57.7163 20.2957 73.6442 46.8281 76.5323V49.6289H32.7363V38.5H46.8281V30.018C46.8281 20.3689 55.1141 15.0391 67.7911 15.0391C73.8636 15.0391 80.2148 15.791 80.2148 15.791V25.2656H73.2166C66.3216 25.2656 64.1719 28.2334 64.1719 31.2782V38.5H79.5645L77.1038 49.6289H64.1719V76.5323C90.7043 73.6442 111 57.7166 111 38.5Z" fill="#1877F2"/>
<path id="Vector_2" d="M78.8548 49.6117L81.3425 38.4757H65.7808V31.2494C65.7808 28.2024 67.9546 25.233 74.9249 25.233H82V15.7524C82 15.7524 75.579 15 69.4398 15C56.6236 15 48.2466 20.3332 48.2466 29.9884V38.4757H34V49.6117H48.2466V76.532C51.1468 76.8441 54.0781 77.0005 57.0137 77C59.9493 77.0006 62.8806 76.8441 65.7808 76.532V49.6117H78.8548Z" fill="white"/>
</g>
<defs>
<clipPath id="clip0_2_16">
<rect width="111" height="77" fill="white"/>
</clipPath>
</defs>
</svg>
